Coordinates
version=1
nRows=6
nColumns=107
inDegrees=yes

Units are S.I. units (second, meters, Newtons, ...)
If the header above contains a line with 'inDegrees', this indicates whether rotational values are in degrees (yes) or radians (no).

endheader
time	sternoclavicular_r2	sternoclavicular_r3	unrotscap_r3	unrotscap_r2	acromioclavicular_r2	acromioclavicular_r3	acromioclavicular_r1	unrothum_r1	unrothum_r3	unrothum_r2	elv_angle	shoulder_elv	shoulder1_r2	shoulder_rot	elbow_flexion	pro_sup	deviation	flexion	proximal_distal_r1	proximal_distal_r3	cmc_flexion	cmc_abduction	mp_flexion	ip_flexion	mcp2_flexion	mcp2_abduction	pm2_flexion	md2_flexion	mcp3_flexion	mcp3_abduction	pm3_flexion	md3_flexion	mcp4_flexion	mcp4_abduction	pm4_flexion	md4_flexion	mcp5_flexion	mcp5_abduction	pm5_flexion	md5_flexion	bicpt_tx	bicpt_ty	bicpt_tz	bicpt2_tx	bicpt2_ty	bicpt2_tz	ptpt_tx	ptpt_ty	ptpt_tz	FCUpt_tx	FCUpt_ty	FCUpt_tz	EDCpt_tx	EDCpt_ty	EDCpt_tz	APLpt_tx	APLpt_ty	APLpt_tz	FPLpt_tx	FPLpt_ty	FPLpt_tz	FPLpt2_tx	FPLpt2_ty	FPLpt2_tz	PEC1pt2_tx	PEC1pt2_ty	PEC1pt2_tz	PEC1pt3_tx	PEC1pt3_ty	PEC1pt3_tz	PEC2pt2_tx	PEC2pt2_ty	PEC2pt2_tz	PEC2pt3_tx	PEC2pt3_ty	PEC2pt3_tz	PEC3pt2_tx	PEC3pt2_ty	PEC3pt2_tz	PEC3pt3_tx	PEC3pt3_ty	PEC3pt3_tz	DELT2pt2a_tx	DELT2pt2a_ty	DELT2pt2a_tz	DELT2pt2_tx	DELT2pt2_ty	DELT2pt2_tz	LAT1pt2_tx	LAT1pt2_ty	LAT1pt2_tz	LAT1pt3_tx	LAT1pt3_ty	LAT1pt3_tz	LAT2pt2_tx	LAT2pt2_ty	LAT2pt2_tz	LAT2pt3_tx	LAT2pt3_ty	LAT2pt3_tz	LAT3pt2_tx	LAT3pt2_ty	LAT3pt2_tz	LAT3pt3_tx	LAT3pt3_ty	LAT3pt3_tz
      1.13333333	     -0.32297105	      0.13679529	     -0.13679529	      0.32297105	     -0.06539507	      0.52849993	      0.23755708	     -0.23755708	     -0.52849993	      0.06539507	     99.01304491	     76.46626649	     -1.72810364	    -21.40796333	     27.19602367	     17.65148020	     -0.06776538	     -0.30993254	     -0.09572544	     -0.15496627	     17.64094931	     23.68667104	     20.00317586	      5.47591890	      1.85086717	     14.35771147	      4.08783969	    -40.89420157	    -31.28074936	      6.16937339	      5.00709057	      8.59211374	    -39.02102475	     -5.61294456	    -11.41635521	     17.58892231	    -56.32679078	    -14.59556975	    -14.70166704	      4.86656725	      0.00079956	     -0.03071708	     -0.00480208	      0.01596134	     -0.01758793	     -0.00950563	      0.00624575	     -0.06574335	     -0.00147192	      0.00560729	     -0.18388906	     -0.00003971	     -0.00211817	      0.00054821	      0.00017151	      0.00023667	      0.00009467	      0.00047334	      0.00030294	      0.00090882	      0.00051121	      0.00001762	     -0.00026813	     -0.00032176	      0.00250640	      0.00879363	      0.00611731	     -0.00819889	      0.01979628	     -0.01877673	      0.00250640	      0.00879363	      0.00611731	      0.00055226	      0.01835192	     -0.00964325	      0.00395925	      0.00489002	      0.01599523	      0.00000000	      0.00782011	      0.00000000	     -0.00717934	     -0.03317789	     -0.00644827	      0.01457547	     -0.00047557	     -0.00380243	     -0.00089211	      0.01495342	     -0.00611731	      0.00246392	      0.02158050	     -0.01784214	     -0.00598986	      0.01295679	     -0.00548009	     -0.01248950	      0.02735795	     -0.03062901	     -0.02344967	      0.01448612	     -0.00734926	     -0.01554815	      0.03160608	     -0.03827565
      1.16666667	     -0.32297380	      0.13679646	     -0.13679646	      0.32297380	     -0.06539562	      0.52850443	      0.23755910	     -0.23755910	     -0.52850443	      0.06539562	     98.99050648	     76.46691745	     -1.72771027	    -21.37536912	     27.22273315	     17.70130179	     -0.06776611	     -0.31023142	     -0.09572693	     -0.15511571	     17.65231723	     23.68836105	     20.00949151	      5.47924203	      1.88248913	     14.35664619	      4.08794462	    -40.87657183	    -31.31889854	      6.16854620	      5.00861156	      8.59196941	    -39.05843792	     -5.61023671	    -11.42400586	     17.58394061	    -56.41634936	    -14.59449592	    -14.72783323	      4.86603149	      0.00080044	     -0.03072014	     -0.00480257	      0.01596398	     -0.01759519	     -0.00950187	      0.00624207	     -0.06574573	     -0.00147593	      0.00561196	     -0.18388834	     -0.00004090	     -0.00212415	      0.00054989	      0.00017176	      0.00023681	      0.00009472	      0.00047362	      0.00030312	      0.00090935	      0.00051151	      0.00001759	     -0.00026820	     -0.00032184	      0.00250642	      0.00879370	      0.00611736	     -0.00819896	      0.01979645	     -0.01877689	      0.00250642	      0.00879370	      0.00611736	      0.00055226	      0.01835208	     -0.00964334	      0.00395928	      0.00489007	      0.01599531	      0.00000000	      0.00782023	      0.00000000	     -0.00717940	     -0.03317817	     -0.00644837	      0.01455732	     -0.00047455	     -0.00379036	     -0.00089211	      0.01495354	     -0.00611736	      0.00246394	      0.02158068	     -0.01784230	     -0.00598991	      0.01295691	     -0.00548013	     -0.01248961	      0.02735819	     -0.03062927	     -0.02344987	      0.01448624	     -0.00734933	     -0.01554829	      0.03160635	     -0.03827597
      1.20000000	     -0.32369473	      0.13710181	     -0.13710181	      0.32369473	     -0.06554160	      0.52968414	      0.23808937	     -0.23808937	     -0.52968414	      0.06554160	     98.85047830	     76.63760367	     -1.72526631	    -20.49051697	     27.15958635	     16.93846123	     -0.06515061	     -0.31280421	     -0.09189274	     -0.15640211	     18.16117463	     23.70246651	     20.03027426	      5.25399917	      1.88522244	     14.34870925	      3.93688322	    -40.91927574	    -31.73051020	      6.09140720	      5.08261833	      8.76369858	    -39.22189051	     -5.48057109	    -11.63103416	     17.38340095	    -56.84493527	    -14.59142741	    -14.57812090	      4.85262992	      0.00079835	     -0.03071290	     -0.00480141	      0.01592297	     -0.01757803	     -0.00955904	      0.00629844	     -0.06570928	     -0.00141448	      0.00554050	     -0.18389929	     -0.00002245	     -0.00203261	      0.00052420	      0.00016786	      0.00023811	      0.00009524	      0.00047622	      0.00030478	      0.00091433	      0.00051431	      0.00001635	     -0.00027079	     -0.00032495	      0.00251201	      0.00881333	      0.00613101	     -0.00821726	      0.01984064	     -0.01881881	      0.00251201	      0.00881333	      0.00613101	      0.00055349	      0.01839304	     -0.00966486	      0.00396572	      0.00490098	      0.01601093	      0.00000000	      0.00785545	      0.00000000	     -0.00719543	     -0.03325223	     -0.00647760	      0.01405770	     -0.00044705	     -0.00347036	     -0.00089411	      0.01498692	     -0.00613101	      0.00246944	      0.02162885	     -0.01788212	     -0.00600328	      0.01298583	     -0.00549237	     -0.01251749	      0.02741925	     -0.03069764	     -0.02350222	      0.01451858	     -0.00736573	     -0.01558299	      0.03167690	     -0.03836141
      1.23333333	     -0.32397805	      0.13722181	     -0.13722181	      0.32397805	     -0.06559896	      0.53014775	      0.23829777	     -0.23829777	     -0.53014775	      0.06559896	     98.75897925	     76.70468246	     -1.72366935	    -19.92351630	     27.15623911	     16.23154178	     -0.06296429	     -0.33377215	     -0.08869634	     -0.16688608	     18.00447855	     23.69626933	     20.93761868	      5.56206456	      2.51794610	     14.35530232	      4.06137613	    -41.04263979	    -31.03478527	      6.11269817	      5.00044439	      9.16123107	    -38.63895096	     -5.39078996	    -11.53192973	     17.38924549	    -56.53747640	    -14.59229860	    -14.27317668	      4.81538576	      0.00079824	     -0.03071252	     -0.00480135	      0.01588379	     -0.01757713	     -0.00961130	      0.00635067	     -0.06567551	     -0.00135754	      0.00547444	     -0.18390930	     -0.00000497	     -0.00194778	      0.00050055	      0.00016396	      0.00024821	      0.00009928	      0.00049641	      0.00031770	      0.00095311	      0.00053612	      0.00001673	     -0.00027003	     -0.00032404	      0.00251421	      0.00882105	      0.00613638	     -0.00822445	      0.01985801	     -0.01883528	      0.00251421	      0.00882105	      0.00613638	      0.00055398	      0.01840914	     -0.00967332	      0.00396824	      0.00490527	      0.01601706	      0.00000000	      0.00786930	      0.00000000	     -0.00720172	     -0.03328134	     -0.00648910	      0.01373221	     -0.00042958	     -0.00327153	     -0.00089489	      0.01500004	     -0.00613638	      0.00247160	      0.02164778	     -0.01789777	     -0.00600854	      0.01299719	     -0.00549717	     -0.01252844	      0.02744325	     -0.03072451	     -0.02352279	      0.01453129	     -0.00737218	     -0.01559663	      0.03170463	     -0.03839499
      1.26666667	     -0.32407306	      0.13726205	     -0.13726205	      0.32407306	     -0.06561820	      0.53030322	      0.23836765	     -0.23836765	     -0.53030322	      0.06561820	     98.75538282	     76.72717655	     -1.72360658	    -19.93075153	     27.15046355	     16.22889999	     -0.06294319	     -0.33380078	     -0.08866556	     -0.16690039	     18.00274757	     23.69543966	     20.93605234	      5.56166774	      2.51569938	     14.35424697	      4.06130253	    -41.04248298	    -31.03576295	      6.11230896	      5.00068717	      9.16102665	    -38.63866914	     -5.39059196	    -11.53163786	     17.38899794	    -56.53511278	    -14.59173925	    -14.27223929	      4.81555297	      0.00079805	     -0.03071186	     -0.00480124	      0.01588363	     -0.01757556	     -0.00961149	      0.00635087	     -0.06567538	     -0.00135732	      0.00547419	     -0.18390933	     -0.00000490	     -0.00194746	      0.00050046	      0.00016395	      0.00024821	      0.00009929	      0.00049643	      0.00031771	      0.00095314	      0.00053614	      0.00001674	     -0.00027001	     -0.00032402	      0.00251495	      0.00882363	      0.00613818	     -0.00822687	      0.01986383	     -0.01884080	      0.00251495	      0.00882363	      0.00613818	      0.00055414	      0.01841454	     -0.00967616	      0.00396909	      0.00490671	      0.01601911	      0.00000000	      0.00787395	      0.00000000	     -0.00720384	     -0.03329110	     -0.00649296	      0.01373626	     -0.00042981	     -0.00327418	     -0.00089515	      0.01500444	     -0.00613818	      0.00247232	      0.02165413	     -0.01790302	     -0.00601030	      0.01300100	     -0.00549879	     -0.01253212	      0.02745130	     -0.03073352	     -0.02352969	      0.01453555	     -0.00737434	     -0.01560121	      0.03171393	     -0.03840625
      1.30000000	     -0.32325688	      0.13691636	     -0.13691636	      0.32325688	     -0.06545294	      0.52896767	      0.23776733	     -0.23776733	     -0.52896767	      0.06545294	     99.03916634	     76.53394079	     -1.72855954	    -21.32594880	     27.19177879	     18.06026849	     -0.05225754	     -0.29916073	     -0.07315581	     -0.14958036	     18.33640235	     23.60804860	     19.46052825	      4.09832169	      1.98322770	     14.30315000	      4.18044136	    -41.44956446	    -30.91879768	      6.01925938	      5.11262606	      9.50364070	    -38.02863421	     -5.34478470	    -11.78697109	     18.71374836	    -54.91486249	    -14.58032043	    -14.21749404	      4.86970146	      0.00079942	     -0.03071659	     -0.00480200	      0.01598281	     -0.01758678	     -0.00947468	      0.00621555	     -0.06576288	     -0.00150485	      0.00564566	     -0.18388312	     -0.00004942	     -0.00216723	      0.00056204	      0.00017348	      0.00023114	      0.00009245	      0.00046227	      0.00029585	      0.00088756	      0.00049925	      0.00001592	     -0.00027162	     -0.00032594	      0.00250861	      0.00880141	      0.00612272	     -0.00820615	      0.01981380	     -0.01879335	      0.00250861	      0.00880141	      0.00612272	      0.00055275	      0.01836816	     -0.00965179	      0.00396181	      0.00489435	      0.01600144	      0.00000000	      0.00783406	      0.00000000	     -0.00718569	     -0.03320725	     -0.00645985	      0.01452964	     -0.00047301	     -0.00377222	     -0.00089290	      0.01496665	     -0.00612272	      0.00246610	      0.02159960	     -0.01785793	     -0.00599516	      0.01296826	     -0.00548494	     -0.01250055	      0.02738217	     -0.03065612	     -0.02347043	      0.01449894	     -0.00735577	     -0.01556191	      0.03163406	     -0.03830952
